{"accessors" : [{"bufferView" : 0, "byteOffset" : 0, "componentType" : 5123, "count" : 4836, "type" : "SCALAR", "max" : [4835], "min" : [0]}, {"bufferView" : 1, "byteOffset" : 0, "componentType" : 5126, "count" : 4836, "type" : "VEC3", "max" : [1.5173619985580444, 2.4731929302215576, 1.8052730560302734], "min" : [-1.6310280561447144, -2.461482048034668, -3.6477880477905273], "name" : "POSITION"}, {"bufferView" : 1, "byteOffset" : 12, "componentType" : 5126, "count" : 4836, "type" : "VEC3", "max" : [0.9997636079788208, 0.9998173713684082, 0.9999796152114868], "min" : [-0.9999083280563354, -0.9999852180480957, -0.9978014230728149], "name" : "NORMAL"}, {"bufferView" : 1, "byteOffset" : 24, "componentType" : 5126, "count" : 4836, "type" : "VEC2", "max" : [0.9802449941635132, -0.0048870001919567585], "min" : [0.0002690000110305846, -0.9817379713058472], "name" : "TEXCOORD_0"}], "asset" : {"generator" : "Aspose.3D 23.4.0", "version" : "2.0"}, "buffers" : [{"uri" : "data:application/octet-stream;base64,", "byteLength" : 164432}], "bufferViews" : [{"buffer" : 0, "byteOffset" : 0, "byteLength" : 9672, "target" : 34963}, {"buffer" : 0, "byteOffset" : 9676, "byteLength" : 154752, "byteStride" : 32, "target" : 34962}], "meshes" : [{"primitives" : [{"attributes" : {"POSITION" : 1, "NORMAL" : 2, "TEXCOORD_0" : 3}, "indices" : 0, "mode" : 4}], "name" : "000-0-0"}], "nodes" : [{"matrix" : [100, 0, 0, 0, 0, -4.371139000186241E-06, -99.9999999999999, 0, 0, 99.9999999999999, -4.371139000186241E-06, 0, 0, 0, 0, 1], "mesh" : 0, "name" : "2"}], "scene" : 0, "scenes" : [{"nodes" : [0]}]}